<?xml version="1.0" standalone="no"?>
<!DOCTYPE svg PUBLIC "-//W3C//DTD SVG 20010904//EN"
 "http://www.w3.org/TR/2001/REC-SVG-20010904/DTD/svg10.dtd">
<svg version="1.0" xmlns="http://www.w3.org/2000/svg"
 width="200.000000pt" height="200.000000pt" viewBox="0 0 200.000000 200.000000"
 preserveAspectRatio="xMidYMid meet">

<g transform="translate(0.000000,200.000000) scale(0.100000,-0.100000)"
fill="#000000" stroke="none">
<path d="M239 1754 c-11 -13 37 -65 357 -385 l369 -369 -369 -369 c-217 -217
-366 -373 -362 -380 4 -6 15 -11 24 -11 9 0 180 163 379 362 l363 363 363
-363 c199 -199 370 -362 380 -362 9 0 17 8 17 17 0 10 -163 181 -362 380
l-363 363 370 370 c352 352 369 371 352 387 -16 17 -35 0 -387 -352 l-370
-370 -368 368 c-202 202 -370 367 -373 367 -4 0 -12 -7 -20 -16z"/>
</g>
</svg>
